HIERARCHY
ROOT joint_Root
{
	OFFSET 0.0 0.0 0.0
	CHANNELS 6 Xposition Yposition Zposition Zrotation Xrotation Yrotation 
	JOINT Hips
	{
		OFFSET 4.5925 91.4895 -427.239
		CHANNELS 6 Xposition Yposition Zposition Zrotation Xrotation Yrotation 
		JOINT Spine
		{
			OFFSET 15.7357 0.0 0.0
			CHANNELS 6 Xposition Yposition Zposition Zrotation Xrotation Yrotation 
			JOINT Chest
			{
				OFFSET 8.98455 -0.406207 0.0
				CHANNELS 6 Xposition Yposition Zposition Zrotation Xrotation Yrotation 
				JOINT Neck
				{
					OFFSET 16.3773 0.0 0.0
					CHANNELS 6 Xposition Yposition Zposition Zrotation Xrotation Yrotation 
					JOINT Head
					{
						OFFSET 6.45672 0.0 0.0
						CHANNELS 6 Xposition Yposition Zposition Zrotation Xrotation Yrotation 
						End Site
						{
							OFFSET 0.0 0.0 0.0
						}
					}
				}
				JOINT Shoulder_L
				{
					OFFSET 12.9942 -0.242716 4.98039
					CHANNELS 6 Xposition Yposition Zposition Zrotation Xrotation Yrotation 
					JOINT UpperArm_L
					{
						OFFSET 5.34809 0.0 0.0
						CHANNELS 6 Xposition Yposition Zposition Zrotation Xrotation Yrotation 
						JOINT LowerArm_L
						{
							OFFSET 24.3286 1.87007e-05 0.0
							CHANNELS 6 Xposition Yposition Zposition Zrotation Xrotation Yrotation 
							JOINT Hand_L
							{
								OFFSET 22.2916 0.0 0.0
								CHANNELS 6 Xposition Yposition Zposition Zrotation Xrotation Yrotation 
								End Site
								{
									OFFSET 0.0 0.0 0.0
								}
							}
						}
					}
				}
				JOINT Shoulder_R
				{
					OFFSET 12.9945 -0.242716 -4.98039
					CHANNELS 6 Xposition Yposition Zposition Zrotation Xrotation Yrotation 
					JOINT UpperArm_R
					{
						OFFSET -5.34813 0.0 0.0
						CHANNELS 6 Xposition Yposition Zposition Zrotation Xrotation Yrotation 
						JOINT LowerArm_R
						{
							OFFSET -24.3289 0.000322201 0.0
							CHANNELS 6 Xposition Yposition Zposition Zrotation Xrotation Yrotation 
							JOINT Hand_R
							{
								OFFSET -22.2915 -0.000108084 0.0
								CHANNELS 6 Xposition Yposition Zposition Zrotation Xrotation Yrotation 
								End Site
								{
									OFFSET 0.0 0.0 0.0
								}
							}
						}
					}
				}
			}
		}
		JOINT UpperLeg_L
		{
			OFFSET -2.19248 -6.46944 0.0
			CHANNELS 6 Xposition Yposition Zposition Zrotation Xrotation Yrotation 
			JOINT LowerLeg_L
			{
				OFFSET 39.0811 0.0 -1.23785e-05
				CHANNELS 6 Xposition Yposition Zposition Zrotation Xrotation Yrotation 
				JOINT Foot_L
				{
					OFFSET 40.9854 0.0 -1.26872e-05
					CHANNELS 6 Xposition Yposition Zposition Zrotation Xrotation Yrotation 
					JOINT Toes_L
					{
						OFFSET 11.7543 0.0 0.0
						CHANNELS 6 Xposition Yposition Zposition Zrotation Xrotation Yrotation 
						End Site
						{
							OFFSET 0.0 0.0 0.0
						}
					}
				}
			}
		}
		JOINT UpperLeg_R
		{
			OFFSET -2.19251 6.46944 0.0
			CHANNELS 6 Xposition Yposition Zposition Zrotation Xrotation Yrotation 
			JOINT LowerLeg_R
			{
				OFFSET -39.0811 -0.00228153 -0.0401928
				CHANNELS 6 Xposition Yposition Zposition Zrotation Xrotation Yrotation 
				JOINT Foot_R
				{
					OFFSET -40.9854 0.0 0.0
					CHANNELS 6 Xposition Yposition Zposition Zrotation Xrotation Yrotation 
					JOINT Toes_R
					{
						OFFSET -11.7543 0.0 0.0
						CHANNELS 6 Xposition Yposition Zposition Zrotation Xrotation Yrotation 
						End Site
						{
							OFFSET 0.0 0.0 0.0
						}
					}
				}
			}
		}
	}
}
MOTION
Frames:	4
Frame Time:	0.0333333
0.000000 0.000000 0.000000 0.000000 0.000000 -0.000000 -1.469570 80.071000 -0.651155 90.745200 3.384230 11.624900 15.735700 0.000005 -0.000001 98.456000 78.322800 -100.730000 8.984550 -0.406207 -0.000000 15.421500 3.235680 -4.990890 16.377300 -0.000001 -0.000001 -3.650800 -6.223260 0.868286 6.456720 -0.000001 -0.000000 -7.815500 -13.719900 9.562390 12.994200 -0.242716 4.980390 -93.285700 7.585230 -66.495200 5.348090 -0.000007 -0.000001 -68.279500 11.392700 1.595500 24.328600 0.000019 0.000005 -3.819140 -7.276080 -27.801100 22.291600 -0.000001 0.000005 17.435400 4.993000 7.467920 12.994500 -0.242716 -4.980390 88.797100 7.784900 -81.188200 -5.348130 -0.000001 -0.000004 -66.077800 22.310200 -3.946210 -24.328900 0.000322 -0.000009 -3.819470 -6.054200 -32.330200 -22.291500 -0.000108 -0.000004 18.350000 5.388360 -2.562470 -2.192480 -6.469440 -0.000000 -175.625000 -8.824740 -18.203300 39.081100 -0.000007 -0.000012 -0.376523 0.155291 67.588100 40.985400 -0.000006 -0.000013 3.490390 8.038840 -87.998400 11.754300 -0.000000 0.000003 -0.000285 -0.002495 -16.670700 -2.192510 6.469440 -0.000001 175.482000 15.550200 163.257000 -39.081100 -0.002282 -0.040193 0.136150 -0.052029 68.637900 -40.985400 0.000008 0.000006 4.329810 -1.457820 -88.458100 -11.754300 -0.000006 -0.000006 -1.556090 -1.953140 -17.061500
0.000000 0.000000 0.000000 0.000000 0.000000 -0.000000 -0.129972 81.713400 -0.477350 91.440400 -0.085848 10.862400 15.735700 0.000005 -0.000001 98.352500 79.064800 -99.503000 8.984550 -0.406207 -0.000000 13.919300 3.079200 -2.678050 16.377300 -0.000001 -0.000001 -3.707880 -5.355610 1.453230 6.456720 -0.000001 -0.000000 -7.855410 -11.751500 8.118170 12.994200 -0.242716 4.980390 -92.662200 5.906130 -65.680100 5.348090 -0.000007 -0.000001 -67.263200 4.182720 4.106120 24.328600 0.000019 0.000005 -6.396780 -11.344500 -29.674000 22.291600 -0.000001 0.000005 18.074200 4.979420 7.753570 12.994500 -0.242716 -4.980390 88.754000 7.270160 -80.246700 -5.348130 -0.000001 -0.000004 -65.062700 21.086200 -5.976690 -24.328900 0.000322 -0.000009 -3.422260 -5.957830 -29.937700 -22.291500 -0.000108 -0.000004 18.271900 5.374680 -2.131420 -2.192480 -6.469440 -0.000000 -176.987000 -11.932700 -16.011800 39.081100 -0.000007 -0.000012 -0.310099 0.157841 63.024800 40.985400 -0.000006 -0.000013 3.821830 7.085580 -86.299700 11.754300 -0.000000 0.000003 -0.000250 -0.002233 -16.661200 -2.192510 6.469440 -0.000001 174.175000 13.370500 164.088000 -39.081100 -0.002282 -0.040193 0.106852 -0.049307 64.566500 -40.985400 0.000008 0.000006 4.269490 0.721735 -86.328400 -11.754300 -0.000006 -0.000006 -1.316630 -1.643960 -16.989800
0.000000 0.000000 0.000000 0.000000 0.000000 -0.000000 1.179080 83.946200 -0.253292 92.268000 -3.056320 9.529760 15.735700 0.000005 -0.000001 100.442000 80.215300 -100.111000 8.984550 -0.406207 -0.000000 11.485000 3.528990 0.307985 16.377300 -0.000001 -0.000001 -2.350770 -4.390980 1.227640 6.456720 -0.000001 -0.000000 -7.576230 -9.638500 4.881130 12.994200 -0.242716 4.980390 -91.864100 4.007440 -65.029200 5.348090 -0.000007 -0.000001 -61.989200 -7.356230 0.982035 24.328600 0.000019 0.000005 -9.359480 -15.398100 -31.828800 22.291600 -0.000001 0.000005 18.266700 4.969550 7.959280 12.994500 -0.242716 -4.980390 88.781100 6.362820 -79.131200 -5.348130 -0.000001 -0.000004 -64.982500 17.583100 -5.116800 -24.328900 0.000322 -0.000009 -2.914680 -5.034460 -30.112000 -22.291500 -0.000108 -0.000004 18.196700 5.374460 -2.124090 -2.192480 -6.469440 -0.000000 -178.892000 -14.083400 -13.636900 39.081100 -0.000007 -0.000012 -0.246293 0.164442 56.271000 40.985400 -0.000006 -0.000013 3.848220 5.928130 -83.398300 11.754300 -0.000000 0.000003 -0.000217 -0.001979 -16.652100 -2.192510 6.469440 -0.000001 172.544000 12.766200 165.269000 -39.081100 -0.002282 -0.040193 0.081100 -0.047619 58.560600 -40.985400 0.000008 0.000006 4.489480 3.772590 -83.187000 -11.754300 -0.000006 -0.000006 -1.052790 -1.302950 -17.078000
0.000000 0.000000 0.000000 0.000000 0.000000 -0.000000 2.177460 86.226300 0.039626 92.925200 -5.182400 8.374920 15.735700 0.000005 -0.000001 103.278000 81.463000 -101.468000 8.984550 -0.406207 -0.000000 8.807140 3.918140 3.317520 16.377300 -0.000001 -0.000001 0.113407 -3.475090 1.074830 6.456720 -0.000001 -0.000000 -6.591750 -6.583270 1.109350 12.994200 -0.242716 4.980390 -90.990200 2.208070 -65.846100 5.348090 -0.000007 -0.000001 -54.338400 -20.136600 -6.488140 24.328600 0.000019 0.000005 -15.303800 -23.649100 -34.300000 22.291600 -0.000001 0.000005 22.076300 4.968220 7.988420 12.994500 -0.242716 -4.980390 88.880200 5.407170 -78.280200 -5.348130 -0.000001 -0.000004 -64.665100 15.430600 -3.310370 -24.328900 0.000322 -0.000009 -4.212120 -7.114420 -30.732100 -22.291500 -0.000108 -0.000004 18.267000 5.405720 -3.129760 -2.192480 -6.469440 -0.000000 179.476000 -15.219200 -10.779300 39.081100 -0.000007 -0.000012 -0.188019 0.166273 48.512900 40.985400 -0.000006 -0.000013 3.707890 5.018810 -79.901600 11.754300 -0.000000 0.000003 -0.000167 -0.001588 -16.637800 -2.192510 6.469440 -0.000001 171.138000 13.342600 167.210000 -39.081100 -0.002282 -0.040193 0.059502 -0.044501 51.657000 -40.985400 0.000008 0.000006 4.594830 6.936330 -79.655900 -11.754300 -0.000006 -0.000006 -0.674376 -0.826917 -17.356000
